HIERARCHY
ROOT Hips
{
	OFFSET 0.00000 0.00000 0.00000
	CHANNELS 6 Xposition Yposition Zposition Zrotation Yrotation Xrotation 
	JOINT LHipJoint
	{
		OFFSET 0 0 0
		CHANNELS 3 Zrotation Yrotation Xrotation
		JOINT LeftUpLeg
		{
			OFFSET 1.75344 -1.53157 0.77399
			CHANNELS 3 Zrotation Yrotation Xrotation
			JOINT LeftLeg
			{
				OFFSET 2.25415 -6.19323 0.00000
				CHANNELS 3 Zrotation Yrotation Xrotation
				JOINT LeftFoot
				{
					OFFSET 2.30342 -6.32861 0.00000
					CHANNELS 3 Zrotation Yrotation Xrotation
					JOINT LeftToeBase
					{
						OFFSET 0.10958 -0.30108 1.49206
						CHANNELS 3 Zrotation Yrotation Xrotation
						End Site
						{
							OFFSET 0.00000 -0.00000 0.77783
						}
					}
				}
			}
		}
	}
	JOINT RHipJoint
	{
		OFFSET 0 0 0
		CHANNELS 3 Zrotation Yrotation Xrotation
		JOINT RightUpLeg
		{
			OFFSET -1.81912 -1.53156 0.77399
			CHANNELS 3 Zrotation Yrotation Xrotation
			JOINT RightLeg
			{
				OFFSET -2.22882 -6.12365 0.00000
				CHANNELS 3 Zrotation Yrotation Xrotation
				JOINT RightFoot
				{
					OFFSET -2.21943 -6.09785 0.00000
					CHANNELS 3 Zrotation Yrotation Xrotation
					JOINT RightToeBase
					{
						OFFSET -0.18931 -0.52012 1.59379
						CHANNELS 3 Zrotation Yrotation Xrotation
						End Site
						{
							OFFSET -0.00000 -0.00000 0.84686
						}
					}
				}
			}
		}
	}
	JOINT LowerBack
	{
		OFFSET 0 0 0
		CHANNELS 3 Zrotation Yrotation Xrotation
		JOINT Spine
		{
			OFFSET -0.00200 1.66634 -0.14248
			CHANNELS 3 Zrotation Yrotation Xrotation
			JOINT Spine1
			{
				OFFSET -0.00875 1.64542 0.09514
				CHANNELS 3 Zrotation Yrotation Xrotation
				JOINT Neck
				{
					OFFSET 0 0 0
					CHANNELS 3 Zrotation Yrotation Xrotation
					JOINT Neck1
					{
						OFFSET 0.02257 1.59605 0.00839
						CHANNELS 3 Zrotation Yrotation Xrotation
						JOINT Head
						{
							OFFSET -0.10214 1.57530 -0.23335
							CHANNELS 3 Zrotation Yrotation Xrotation
							End Site
							{
								OFFSET -0.03588 1.60717 -0.08062
							}
						}
					}
				}
				JOINT LeftShoulder
				{
					OFFSET 0 0 0
					CHANNELS 3 Zrotation Yrotation Xrotation
					JOINT LeftArm
					{
						OFFSET 2.54983 1.10186 0.40078
						CHANNELS 3 Zrotation Yrotation Xrotation
						JOINT LeftForeArm
						{
							OFFSET 4.28840 -0.00000 0.00000
							CHANNELS 3 Zrotation Yrotation Xrotation
							JOINT LeftHand
							{
								OFFSET 3.06552 -0.00000 -0.00000
								CHANNELS 3 Zrotation Yrotation Xrotation
								JOINT LeftFingerBase
								{
									OFFSET 0 0 0
									CHANNELS 3 Zrotation Yrotation Xrotation
									JOINT LeftHandIndex1
									{
										OFFSET 0.75304 -0.00000 0.00000
										CHANNELS 3 Zrotation Yrotation Xrotation
										End Site
										{
											OFFSET 0.60712 -0.00000 0.00000
										}
									}
								}
								JOINT LThumb
								{
									OFFSET 0 0 0
									CHANNELS 3 Zrotation Yrotation Xrotation
									End Site
									{
										OFFSET 0.61639 -0.00000 0.61639
									}
								}
							}
						}
					}
				}
				JOINT RightShoulder
				{
					OFFSET 0 0 0
					CHANNELS 3 Zrotation Yrotation Xrotation
					JOINT RightArm
					{
						OFFSET -2.60909 1.35448 0.21802
						CHANNELS 3 Zrotation Yrotation Xrotation
						JOINT RightForeArm
						{
							OFFSET -4.52172 -0.00000 -0.00000
							CHANNELS 3 Zrotation Yrotation Xrotation
							JOINT RightHand
							{
								OFFSET -2.89140 -0.00000 0.00000
								CHANNELS 3 Zrotation Yrotation Xrotation
								JOINT RightFingerBase
								{
									OFFSET 0 0 0
									CHANNELS 3 Zrotation Yrotation Xrotation
									JOINT RightHandIndex1
									{
										OFFSET -0.68054 -0.00000 0.00000
										CHANNELS 3 Zrotation Yrotation Xrotation
										End Site
										{
											OFFSET -0.54867 -0.00000 0.00000
										}
									}
								}
								JOINT RThumb
								{
									OFFSET 0 0 0
									CHANNELS 3 Zrotation Yrotation Xrotation
									End Site
									{
										OFFSET -0.55705 -0.00000 0.55705
									}
								}
							}
						}
					}
				}
			}
		}
	}
}
MOTION
Frames: 14
Frame Time: .0083333
-8.0791 15.4768 -26.6095 354.9520 171.3250 -2.0033 0.0000 0.0000 0.0000 -31.1167 -17.0747 4.2592 1.1456 6.7967 19.1143 0.7877 16.3021 -29.4413 0.7485 -5.5261 -15.4153 0.0000 0.0000 0.0000 22.7745 2.2898 -27.2790 -8.5557 -16.5131 54.5405 -0.2825 -16.1149 -25.4016 -0.6862 -5.2960 14.7548 -5.3383 -2.1442 8.0235 -0.8560 -3.4605 -2.4606 2.5630 -1.4713 -6.8358 -17.8753 -14.3240 1.5782 14.9149 -20.3094 11.0104 5.9788 -9.9649 6.4669 0.0000 0.0000 0.0000 -75.5767 -1.6598 14.7087 20.3127 -31.0172 -5.6916 -0.0000 -0.0000 20.6955 9.4162 -24.4983 -3.9339 -7.1250 0.0000 -0.0000 -12.2462 5.6567 11.2453 0.0000 0.0000 0.0000 75.0212 -15.2539 23.3469 -16.9187 26.7504 -4.0507 0.0000 0.0000 15.9072 -6.8473 -51.3740 5.3593 7.1250 -0.0000 -0.0000 63.9500 -73.2369 -47.3936
-8.0697 15.4834 -26.7152 355.0310 170.9580 -1.9112 0.0000 0.0000 0.0000 -31.1060 -16.6559 4.5425 1.1274 6.7441 18.9596 0.6958 16.8387 -29.3870 1.0153 -6.4107 -17.9808 0.0000 0.0000 0.0000 23.1733 2.3560 -27.7038 -7.8897 -16.0375 52.1644 -0.2143 -16.9998 -25.9511 -0.4727 -4.4093 12.2310 -5.3016 -2.2682 7.9392 -0.8228 -3.6133 -2.3885 2.5904 -1.5538 -6.6980 -17.8138 -14.5658 1.4161 14.9036 -20.6222 10.7976 5.9085 -10.1164 6.4721 -0.0000 0.0000 0.0000 -75.3948 -2.4157 15.3185 20.5212 -31.2652 -5.7994 -0.0000 -0.0000 19.9650 8.5295 -25.1648 -3.6490 -7.1250 0.0000 -0.0000 -12.7992 5.0970 11.9193 -0.0000 0.0000 0.0000 75.0507 -15.1692 22.8768 -16.7247 26.4935 -3.9638 0.0000 0.0000 15.8454 -7.4438 -50.8621 5.7866 7.1250 -0.0000 -0.0000 61.9963 -73.2502 -45.6995
-8.0605 15.4854 -26.8197 355.0600 170.4600 -1.8964 0.0000 0.0000 0.0000 -31.1948 -16.2212 5.0025 1.0928 6.6433 18.6629 0.6756 17.1047 -29.5414 0.9924 -6.3403 -17.7751 0.0000 0.0000 0.0000 23.4925 2.4561 -27.9626 -7.2111 -15.5071 49.6684 -0.1331 -17.9515 -26.5300 -0.4365 -4.2396 11.7519 -5.3086 -2.3713 7.9156 -0.7936 -3.7456 -2.2810 2.6370 -1.6252 -6.5569 -17.5566 -14.7354 1.0559 14.6061 -20.7866 10.7136 5.7280 -10.1917 6.4716 0.0000 0.0000 0.0000 -75.3480 -2.9530 16.0039 20.8759 -31.6832 -5.9846 -0.0000 -0.0000 19.5564 8.9230 -25.2322 -3.8291 -7.1250 0.0000 -0.0000 -12.5634 4.9892 11.7145 0.0000 0.0000 0.0000 75.0773 -14.9510 22.4026 -16.5135 26.2120 -3.8700 0.0000 0.0000 16.0655 -7.6655 -50.2613 5.9089 7.1250 -0.0000 -0.0000 60.0309 -73.0732 -43.8122
-8.0478 15.4837 -26.9244 355.0390 169.8450 -1.8237 0.0000 0.0000 0.0000 -31.2781 -15.6514 5.3295 1.0609 6.5488 18.3852 0.6903 17.1513 -29.6944 1.0020 -6.3700 -17.8619 0.0000 0.0000 0.0000 23.8089 2.6308 -28.1311 -6.5289 -14.9220 47.0692 -0.0111 -19.1140 -27.1287 -0.5180 -4.6127 12.8071 -5.3132 -2.4154 7.9739 -0.8144 -3.8124 -2.3563 2.6315 -1.6528 -6.6664 -17.4065 -14.7871 1.0179 14.4918 -20.8420 10.6433 5.6624 -10.2197 6.4353 -0.0000 -0.0000 0.0000 -75.3157 -3.2375 16.5870 21.1876 -32.0467 -6.1492 -0.0000 -0.0000 19.2631 8.7048 -25.3685 -3.7531 -7.1250 0.0000 -0.0000 -12.6983 4.8791 11.8738 -0.0000 -0.0000 0.0000 75.1679 -15.2041 22.2336 -16.5792 26.2997 -3.8991 0.0000 0.0000 15.8477 -8.0885 -49.9084 6.2049 7.1250 -0.0000 -0.0000 58.6862 -73.0678 -42.6616
-8.0320 15.4791 -27.0304 355.0220 169.2350 -1.7439 0.0000 0.0000 0.0000 -31.3115 -14.9564 5.5844 1.0331 6.4651 18.1401 0.7904 16.8830 -30.0819 0.9533 -6.2175 -17.4167 0.0000 0.0000 0.0000 24.1430 2.8729 -28.1896 -5.8626 -14.2938 44.4276 0.0567 -20.1035 -27.9831 -0.6037 -4.9737 13.8335 -5.3872 -2.4686 7.7348 -0.8038 -3.8710 -2.2767 2.6751 -1.6877 -6.4345 -17.4822 -14.7442 1.1508 14.8156 -20.8187 10.2885 5.7931 -10.2120 6.3421 0.0000 0.0000 0.0000 -74.9386 -3.6226 18.2986 21.5496 -32.4642 -6.3424 -0.0000 -0.0000 18.1248 9.0172 -24.8534 -3.8159 -7.1250 0.0000 -0.0000 -12.4971 5.3506 11.5619 0.0000 0.0000 0.0000 75.2013 -15.3599 22.4306 -16.8841 26.7048 -4.0351 0.0000 0.0000 15.2916 -8.1052 -50.0660 6.2320 7.1250 -0.0000 -0.0000 59.1427 -73.1464 -43.1333
-8.0157 15.4752 -27.1303 354.9630 168.7450 -1.6758 0.0000 0.0000 0.0000 -31.3747 -14.3363 5.9169 0.9849 6.3168 17.7065 0.8769 16.6878 -30.4514 0.8869 -6.0030 -16.7932 0.0000 0.0000 0.0000 24.3818 3.2120 -28.1770 -5.2378 -13.6466 41.8400 0.0032 -20.7876 -29.3355 -0.7862 -5.6604 15.8021 -5.4255 -2.5451 7.6630 -0.8473 -3.9723 -2.2519 2.6580 -1.7392 -6.3594 -17.9268 -14.6611 1.5636 15.4591 -20.8016 9.8506 6.0945 -10.2212 6.2541 0.0000 -0.0000 0.0000 -74.6871 -4.0598 19.4338 21.8706 -32.8305 -6.5155 -0.0000 -0.0000 17.6004 9.4471 -24.5471 -3.9544 -7.1250 0.0000 -0.0000 -12.2286 5.6054 11.2407 0.0000 -0.0000 0.0000 75.3197 -15.4900 22.4435 -17.1000 26.9894 -4.1326 0.0000 0.0000 15.0298 -7.8065 -49.9983 5.9952 7.1250 -0.0000 -0.0000 59.1538 -73.0064 -42.9925
-7.9994 15.4748 -27.2188 354.9350 168.2660 -1.6174 0.0000 0.0000 0.0000 -31.4028 -13.8353 6.3108 0.9251 6.1276 17.1550 0.8410 16.7507 -30.2798 0.7760 -5.6244 -15.6985 0.0000 0.0000 0.0000 24.6437 3.6327 -28.1273 -4.6561 -12.9857 39.3151 -0.1063 -21.4678 -31.0173 -1.0763 -6.5944 18.5193 -5.6122 -2.6379 8.2295 -0.7599 -4.1629 -2.5322 2.9193 -1.7970 -6.9495 -17.9923 -14.8133 1.6489 15.2871 -21.0090 9.8837 6.0229 -10.3361 6.2734 0.0000 0.0000 0.0000 -74.7762 -4.0381 19.8704 22.2643 -33.2744 -6.7303 -0.0000 -0.0000 17.7631 9.2381 -24.8007 -3.9029 -7.1250 0.0000 -0.0000 -12.3619 5.3788 11.4238 0.0000 0.0000 0.0000 75.1594 -15.9001 22.7665 -17.2453 27.1801 -4.1988 0.0000 0.0000 14.7484 -7.7659 -49.6512 5.9337 7.1250 -0.0000 -0.0000 58.1668 -72.8295 -41.9682
-7.9797 15.4777 -27.3327 354.6320 167.6550 -1.6922 0.0000 0.0000 0.0000 -31.8422 -13.2535 6.9661 0.8685 5.9420 16.6163 0.9184 16.6494 -30.6850 0.5267 -4.6510 -12.9157 0.0000 0.0000 0.0000 24.6355 3.7462 -27.9802 -4.1144 -12.3111 36.8417 -0.1292 -22.3061 -32.2836 -1.2253 -7.0206 19.7763 -5.8963 -2.6618 8.0920 -0.8092 -4.2177 -2.5984 3.0256 -1.8104 -6.9216 -18.4028 -14.7709 2.0968 15.6830 -21.0331 9.5680 6.2373 -10.3739 6.1946 0.0000 0.0000 0.0000 -74.8878 -4.1028 20.4140 22.6363 -33.6887 -6.9355 -0.0000 -0.0000 17.9925 8.9025 -25.1721 -3.8117 -7.1250 0.0000 -0.0000 -12.5743 5.0504 11.7102 0.0000 0.0000 0.0000 75.0240 -16.2319 23.0598 -17.4328 27.4249 -4.2848 0.0000 0.0000 14.4976 -5.8702 -49.9937 4.5029 7.1250 -0.0000 -0.0000 60.5089 -72.3028 -43.3790
-7.9580 15.4786 -27.4468 354.4610 166.7350 -1.5559 0.0000 0.0000 0.0000 -32.0990 -12.6275 7.3930 0.8088 5.7392 16.0296 0.9818 16.8191 -31.2703 0.4075 -4.0979 -11.3522 0.0000 0.0000 0.0000 24.7831 4.1881 -27.8877 -3.6117 -11.6249 34.4177 -0.0612 -23.5150 -33.4819 -1.2012 -6.9538 19.5785 -6.0130 -2.6354 7.7370 -0.8654 -4.1703 -2.6611 3.0057 -1.7857 -6.7854 -18.3412 -14.7291 2.0681 15.6978 -20.9721 9.5002 6.2423 -10.3429 6.1622 -0.0000 -0.0000 0.0000 -74.8238 -4.2392 21.1058 22.9919 -34.0800 -7.1338 -0.0000 -0.0000 17.7685 8.7887 -25.4069 -3.7950 -7.1250 0.0000 -0.0000 -12.6488 4.8325 11.8365 -0.0000 -0.0000 0.0000 75.0587 -16.4731 23.2042 -17.7038 27.7762 -4.4103 0.0000 0.0000 14.3498 -3.6970 -50.8859 2.8700 7.1250 -0.0000 -0.0000 64.5000 -71.9060 -46.3734
-7.9352 15.4782 -27.5446 354.5260 166.4000 -1.4192 0.0000 0.0000 0.0000 -31.9589 -11.9320 7.8183 0.7319 5.4660 15.2426 0.8972 17.0548 -30.9699 0.4706 -4.4000 -12.2048 0.0000 0.0000 0.0000 25.0150 4.7541 -27.6878 -3.1649 -10.9573 32.1359 -0.1263 -24.7520 -35.5122 -1.3610 -7.3843 20.8590 -6.0063 -2.8251 7.9164 -0.8342 -4.4411 -2.7943 3.0834 -1.9070 -7.0044 -18.0568 -14.6753 1.9003 15.5022 -20.8602 9.5454 6.1474 -10.2791 6.1310 0.0000 0.0000 0.0000 -74.7281 -4.2438 21.6712 23.3657 -34.4862 -7.3443 -0.0000 -0.0000 17.9109 8.8740 -25.4863 -3.8435 -7.1250 0.0000 -0.0000 -12.5996 4.7456 11.8091 0.0000 0.0000 0.0000 75.1432 -16.7532 23.2744 -17.9666 28.1143 -4.5335 0.0000 0.0000 14.2799 -4.4372 -50.3333 3.4184 7.1250 -0.0000 -0.0000 62.4574 -71.9395 -44.6409
-7.9083 15.4685 -27.6381 354.2800 165.8370 -1.3863 0.0000 0.0000 0.0000 -32.1350 -11.1250 8.0683 0.6852 5.2923 14.7441 0.8608 17.1190 -30.8009 0.5076 -4.5670 -12.6776 0.0000 0.0000 0.0000 24.8715 5.7099 -27.3492 -2.7559 -10.2890 29.9179 -0.2594 -25.3933 -37.0675 -1.7460 -8.3157 23.6772 -6.2681 -2.8659 7.4754 -0.9481 -4.4799 -2.5564 3.0764 -1.9405 -6.4836 -17.8159 -14.7126 1.6908 15.6126 -20.8855 9.2695 6.1341 -10.2773 6.0701 0.0000 0.0000 0.0000 -74.5783 -4.7623 22.3831 23.7422 -34.8905 -7.5586 -0.0000 -0.0000 18.1739 9.2618 -25.3054 -3.9873 -7.1250 0.0000 -0.0000 -12.3610 4.8809 11.5420 0.0000 0.0000 0.0000 75.4005 -16.5060 23.0345 -18.1545 28.3546 -4.6224 0.0000 0.0000 14.2133 -5.2069 -48.0125 3.8750 7.1250 -0.0000 -0.0000 55.7308 -71.0934 -38.1012
-7.8867 15.4582 -27.7500 353.8540 165.0910 -1.1925 0.0000 0.0000 0.0000 -32.5501 -10.3588 8.2486 0.6345 5.0965 14.1840 0.7902 17.2992 -30.5297 0.6218 -5.0463 -14.0406 0.0000 0.0000 0.0000 24.4850 6.6104 -27.2236 -2.4140 -9.6798 27.9460 -0.3201 -25.7708 -37.8633 -2.0390 -8.9469 25.6295 -6.4788 -2.8886 7.1170 -1.1398 -4.5116 -2.7707 2.9793 -1.9406 -6.5043 -17.3070 -14.7345 1.5897 15.1782 -20.8661 9.4137 5.9263 -10.2598 6.0235 0.0000 -0.0000 0.0000 -74.4560 -4.5332 23.1877 24.2557 -35.4335 -7.8543 -0.0000 -0.0000 18.1840 9.4755 -25.2789 -4.0767 -7.1250 0.0000 -0.0000 -12.2313 4.8834 11.4144 0.0000 -0.0000 0.0000 75.4950 -17.0005 23.3763 -18.5247 28.8238 -4.7995 0.0000 0.0000 13.8224 -5.6249 -45.9186 4.0469 7.1250 -0.0000 -0.0000 50.4256 -70.0449 -32.8515
-7.8594 15.4475 -27.8550 353.9830 164.5480 -1.2658 0.0000 0.0000 0.0000 -32.4174 -9.5956 8.8006 0.5964 4.9439 13.7487 0.7659 17.2934 -30.3623 0.6796 -5.2709 -14.6829 0.0000 0.0000 0.0000 24.5488 7.8951 -26.4073 -2.1095 -9.0905 26.0788 -0.2213 -27.3150 -39.3591 -2.1737 -9.2190 26.4827 -6.2397 -2.9895 7.1573 -1.1596 -4.6313 -2.8218 2.8443 -2.0063 -6.5893 -17.4154 -14.4919 2.0146 15.4522 -20.5884 9.0766 6.1072 -10.1446 5.8435 0.0000 0.0000 0.0000 -74.3148 -4.4600 23.8007 24.7094 -35.9055 -8.1189 -0.0000 -0.0000 17.9637 9.0612 -25.4840 -3.9254 -7.1250 0.0000 -0.0000 -12.4868 4.7275 11.7023 0.0000 0.0000 0.0000 75.5382 -17.3101 23.8263 -18.8151 29.1883 -4.9403 0.0000 0.0000 13.4968 -6.0354 -46.3187 4.3724 7.1250 -0.0000 -0.0000 50.9653 -70.4240 -33.6496
-7.8276 15.4400 -27.9626 353.4520 164.0830 -1.5710 0.0000 0.0000 0.0000 -32.9754 -8.9403 9.4529 0.5612 4.7983 13.3342 0.7994 17.2509 -30.5384 0.7316 -5.4647 -15.2389 0.0000 0.0000 0.0000 23.7899 9.5713 -25.4454 -1.8623 -8.5731 24.4688 -0.2222 -28.9865 -41.5247 -2.4650 -9.7739 28.2477 -6.7429 -3.0955 7.0943 -1.2736 -4.8138 -2.7902 3.0168 -2.0781 -6.4753 -17.4347 -14.3455 2.1955 15.4593 -20.3955 8.8417 6.1586 -10.0670 5.7105 0.0000 0.0000 0.0000 -74.2540 -4.4334 24.5525 25.1011 -36.3071 -8.3497 -0.0000 -0.0000 17.3787 8.8516 -25.5800 -3.8468 -7.1250 0.0000 -0.0000 -12.6155 4.6561 11.8465 0.0000 0.0000 0.0000 75.4557 -17.4800 24.2584 -19.0305 29.4565 -5.0458 0.0000 0.0000 13.2592 -5.1773 -49.0307 3.9138 7.1250 -0.0000 -0.0000 58.3774 -71.6024 -40.8186
